<svg width="197" height="46" viewBox="0 0 197 46" fill="none" xmlns="http://www.w3.org/2000/svg">
<path d="M1.197 22.3H13.503C13.657 22.3 13.79 22.356 13.902 22.468C14.014 22.58 14.07 22.713 14.07 22.867V26.248C14.07 26.402 14.014 26.535 13.902 26.647C13.79 26.759 13.657 26.815 13.503 26.815H10.017V36.433C10.017 36.587 9.961 36.72 9.849 36.832C9.737 36.944 9.604 37 9.45 37H5.25C5.096 37 4.963 36.944 4.851 36.832C4.739 36.72 4.683 36.587 4.683 36.433V26.815H1.197C1.043 26.815 0.91 26.759 0.798 26.647C0.686 26.535 0.63 26.402 0.63 26.248V22.867C0.63 22.713 0.686 22.58 0.798 22.468C0.91 22.356 1.043 22.3 1.197 22.3ZM20.6681 22.3H25.2251C25.7291 22.3 26.0441 22.531 26.1701 22.993L30.8531 36.391C30.8671 36.433 30.8741 36.503 30.8741 36.601C30.8741 36.685 30.8251 36.776 30.7271 36.874C30.6431 36.958 30.5381 37 30.4121 37H26.5271C26.1071 37 25.8341 36.825 25.7081 36.475L25.2041 35.089H20.6891L20.1851 36.475C20.0591 36.825 19.7861 37 19.3661 37H15.4811C15.3551 37 15.2431 36.958 15.1451 36.874C15.0611 36.776 15.0191 36.685 15.0191 36.601C15.0191 36.503 15.0261 36.433 15.0401 36.391L19.7231 22.993C19.8491 22.531 20.1641 22.3 20.6681 22.3ZM21.7601 30.994H24.1331L22.9361 27.088L21.7601 30.994ZM43.7084 26.605H37.8914V36.433C37.8914 36.587 37.8354 36.72 37.7234 36.832C37.6114 36.944 37.4784 37 37.3244 37H33.1244C32.9704 37 32.8374 36.944 32.7254 36.832C32.6134 36.72 32.5574 36.587 32.5574 36.433V22.867C32.5574 22.713 32.6134 22.58 32.7254 22.468C32.8374 22.356 32.9704 22.3 33.1244 22.3H43.7084C43.8624 22.3 43.9954 22.356 44.1074 22.468C44.2194 22.58 44.2754 22.713 44.2754 22.867V26.038C44.2754 26.192 44.2194 26.325 44.1074 26.437C43.9954 26.549 43.8624 26.605 43.7084 26.605ZM46.6185 22.3H50.4195C50.5735 22.3 50.7065 22.356 50.8185 22.468C50.9305 22.58 50.9865 22.713 50.9865 22.867V28.6L54.5355 22.783C54.7175 22.461 55.0045 22.3 55.3965 22.3H58.7145C58.8685 22.3 59.0015 22.356 59.1135 22.468C59.2255 22.58 59.2815 22.713 59.2815 22.867V36.433C59.2815 36.587 59.2255 36.72 59.1135 36.832C59.0015 36.944 58.8685 37 58.7145 37H54.9135C54.7595 37 54.6265 36.944 54.5145 36.832C54.4025 36.72 54.3465 36.587 54.3465 36.433V31.162L50.7975 36.517C50.5875 36.839 50.3005 37 49.9365 37H46.6185C46.4645 37 46.3315 36.944 46.2195 36.832C46.1075 36.72 46.0515 36.587 46.0515 36.433V22.867C46.0515 22.713 46.1075 22.58 46.2195 22.468C46.3315 22.356 46.4645 22.3 46.6185 22.3ZM62.5736 22.3H68.8316C70.8476 22.3 72.4226 22.734 73.5566 23.602C74.6906 24.47 75.2576 25.751 75.2576 27.445C75.2576 29.139 74.6906 30.392 73.5566 31.204C72.4366 32.016 70.8616 32.422 68.8316 32.422H67.4666V36.433C67.4666 36.587 67.4106 36.72 67.2986 36.832C67.1866 36.944 67.0536 37 66.8996 37H62.5736C62.4196 37 62.2866 36.944 62.1746 36.832C62.0626 36.72 62.0066 36.587 62.0066 36.433V22.867C62.0066 22.713 62.0626 22.58 62.1746 22.468C62.2866 22.356 62.4196 22.3 62.5736 22.3ZM67.3616 26.206V28.537H68.8316C69.0836 28.537 69.3076 28.446 69.5036 28.264C69.6996 28.068 69.7976 27.795 69.7976 27.445C69.7976 27.095 69.7206 26.801 69.5666 26.563C69.4126 26.325 69.1676 26.206 68.8316 26.206H67.3616ZM108.06 22.3H118.119C118.273 22.3 118.406 22.356 118.518 22.468C118.63 22.58 118.686 22.713 118.686 22.867V25.828C118.686 25.982 118.63 26.115 118.518 26.227C118.406 26.339 118.273 26.395 118.119 26.395H112.743V27.613H114.087C115.935 27.613 117.398 28.019 118.476 28.831C119.568 29.629 120.114 30.763 120.114 32.233C120.114 33.703 119.582 34.865 118.518 35.719C117.454 36.573 115.977 37 114.087 37H108.06C107.906 37 107.773 36.944 107.661 36.832C107.549 36.72 107.493 36.587 107.493 36.433V22.867C107.493 22.713 107.549 22.58 107.661 22.468C107.773 22.356 107.906 22.3 108.06 22.3ZM112.743 31.12V33.388H114.066C114.374 33.388 114.612 33.262 114.78 33.01C114.948 32.758 115.032 32.492 115.032 32.212C115.032 31.932 114.941 31.68 114.759 31.456C114.591 31.232 114.36 31.12 114.066 31.12H112.743ZM126.714 22.3H131.271C131.775 22.3 132.09 22.531 132.216 22.993L136.899 36.391C136.913 36.433 136.92 36.503 136.92 36.601C136.92 36.685 136.871 36.776 136.773 36.874C136.689 36.958 136.584 37 136.458 37H132.573C132.153 37 131.88 36.825 131.754 36.475L131.25 35.089H126.735L126.231 36.475C126.105 36.825 125.832 37 125.412 37H121.527C121.401 37 121.289 36.958 121.191 36.874C121.107 36.776 121.065 36.685 121.065 36.601C121.065 36.503 121.072 36.433 121.086 36.391L125.769 22.993C125.895 22.531 126.21 22.3 126.714 22.3ZM127.806 30.994H130.179L128.982 27.088L127.806 30.994ZM139.17 22.3H145.428C147.444 22.3 149.019 22.734 150.153 23.602C151.287 24.47 151.854 25.751 151.854 27.445C151.854 29.139 151.287 30.392 150.153 31.204C149.033 32.016 147.458 32.422 145.428 32.422H144.063V36.433C144.063 36.587 144.007 36.72 143.895 36.832C143.783 36.944 143.65 37 143.496 37H139.17C139.016 37 138.883 36.944 138.771 36.832C138.659 36.72 138.603 36.587 138.603 36.433V22.867C138.603 22.713 138.659 22.58 138.771 22.468C138.883 22.356 139.016 22.3 139.17 22.3ZM143.958 26.206V28.537H145.428C145.68 28.537 145.904 28.446 146.1 28.264C146.296 28.068 146.394 27.795 146.394 27.445C146.394 27.095 146.317 26.801 146.163 26.563C146.009 26.325 145.764 26.206 145.428 26.206H143.958ZM154.203 22.3H164.262C164.416 22.3 164.549 22.356 164.661 22.468C164.773 22.58 164.829 22.713 164.829 22.867V25.828C164.829 25.982 164.773 26.115 164.661 26.227C164.549 26.339 164.416 26.395 164.262 26.395H158.886V27.613H160.23C162.078 27.613 163.541 28.019 164.619 28.831C165.711 29.629 166.257 30.763 166.257 32.233C166.257 33.703 165.725 34.865 164.661 35.719C163.597 36.573 162.12 37 160.23 37H154.203C154.049 37 153.916 36.944 153.804 36.832C153.692 36.72 153.636 36.587 153.636 36.433V22.867C153.636 22.713 153.692 22.58 153.804 22.468C153.916 22.356 154.049 22.3 154.203 22.3ZM158.886 31.12V33.388H160.209C160.517 33.388 160.755 33.262 160.923 33.01C161.091 32.758 161.175 32.492 161.175 32.212C161.175 31.932 161.084 31.68 160.902 31.456C160.734 31.232 160.503 31.12 160.209 31.12H158.886ZM173.298 32.905H179.766C179.92 32.905 180.053 32.961 180.165 33.073C180.277 33.185 180.333 33.318 180.333 33.472V36.433C180.333 36.587 180.277 36.72 180.165 36.832C180.053 36.944 179.92 37 179.766 37H168.825C168.671 37 168.538 36.944 168.426 36.832C168.314 36.72 168.258 36.587 168.258 36.433V22.867C168.258 22.713 168.314 22.58 168.426 22.468C168.538 22.356 168.671 22.3 168.825 22.3H179.598C179.752 22.3 179.885 22.356 179.997 22.468C180.109 22.58 180.165 22.713 180.165 22.867V25.828C180.165 25.982 180.109 26.115 179.997 26.227C179.885 26.339 179.752 26.395 179.598 26.395H173.298V27.718H179.136C179.29 27.718 179.423 27.774 179.535 27.886C179.647 27.998 179.703 28.131 179.703 28.285V31.015C179.703 31.169 179.647 31.302 179.535 31.414C179.423 31.526 179.29 31.582 179.136 31.582H173.298V32.905ZM183.426 22.3H189.684C191.7 22.3 193.275 22.734 194.409 23.602C195.543 24.47 196.11 25.751 196.11 27.445C196.11 29.139 195.543 30.392 194.409 31.204C193.289 32.016 191.714 32.422 189.684 32.422H188.319V36.433C188.319 36.587 188.263 36.72 188.151 36.832C188.039 36.944 187.906 37 187.752 37H183.426C183.272 37 183.139 36.944 183.027 36.832C182.915 36.72 182.859 36.587 182.859 36.433V22.867C182.859 22.713 182.915 22.58 183.027 22.468C183.139 22.356 183.272 22.3 183.426 22.3ZM188.214 26.206V28.537H189.684C189.936 28.537 190.16 28.446 190.356 28.264C190.552 28.068 190.65 27.795 190.65 27.445C190.65 27.095 190.573 26.801 190.419 26.563C190.265 26.325 190.02 26.206 189.684 26.206H188.214Z" fill="#DCFE50"/>
<path d="M99.8534 5.09989C99.0145 0.781467 91.6989 -1.77767 90.001 1.46105C88.3032 -1.77785 80.9865 0.781467 80.1466 5.09989C79.0469 9.61766 73.2323 10.8618 70 8.50521C70 13.6071 75.4299 13.6749 78.7891 14C86.7455 13.646 89.2577 9.93235 90.001 8.23594C90.7423 9.93464 93.2547 13.6462 101.212 14C104.573 13.6749 110 13.6052 110 8.50521C106.767 10.8618 100.954 9.61572 99.8534 5.09989Z" fill="#DCFE50"/>
</svg>
