<svg width="29" height="29" viewBox="0 0 29 29" fill="none" xmlns="http://www.w3.org/2000/svg">
<path d="M25.7295 3.52112C22.1614 4.99896 6.86156 11.3363 2.63423 13.0636C-0.200808 14.1699 1.45886 15.2073 1.45886 15.2073C1.45886 15.2073 3.87891 16.0369 5.95357 16.6593C8.02794 17.2816 9.13429 16.5903 9.13429 16.5903L18.8841 10.0212C22.3415 7.67015 21.5118 9.60619 20.6818 10.4362C18.8841 12.2342 15.9107 15.0689 13.4214 17.3509C12.315 18.319 12.868 19.1486 13.3523 19.5636C15.1501 21.085 20.0598 24.1967 20.3361 24.404C21.7969 25.4382 24.6702 26.9267 25.1072 23.7817L26.8359 12.9255C27.3892 9.2608 27.9422 5.87244 28.0113 4.90442C28.2189 2.5531 25.7295 3.52112 25.7295 3.52112Z" fill="#1B92D1"/>
</svg>
